<?xml version="1.0" ?><!-- Uploaded to: SVG Repo, www.svgrepo.com, Generator: SVG Repo Mixer Tools -->
<svg fill="#000000" width="800px" height="800px" viewBox="0 0 64 64" data-name="Material Expand" id="Material_Expand" xmlns="http://www.w3.org/2000/svg"><path d="M61.132,7.352a2,2,0,0,0-1.85-.218L49,11.089V10a2,2,0,0,0-2-2H17a2,2,0,0,0-2,2v1.089L4.718,7.134A2,2,0,0,0,2,9v8.939a5.029,5.029,0,0,0,2,3.987v7.783A5.026,5.026,0,0,0,6,33.7v7.783a5.033,5.033,0,0,0,3.205,4.667L15,48.374V50a2,2,0,0,0,1.257,1.857l15,6a2,2,0,0,0,1.486,0l15-6A2,2,0,0,0,49,50V48.374l5.8-2.229A5.032,5.032,0,0,0,58,41.479V33.7a5.026,5.026,0,0,0,2-3.987V21.926a5.029,5.029,0,0,0,2-3.987V9A2,2,0,0,0,61.132,7.352Zm-5.85,23.32-1.444.555L49,33.088V26.374l7-2.692v6.027a.992.992,0,0,1-.639.933l-.078.03ZM58,11.912v6.027a1.006,1.006,0,0,1-.641.934l-.074.029h0L49,22.088V15.373ZM45,25v5H34V12H45ZM19,12H30V30H19V12ZM8,29.709V23.682l7,2.692v6.714L8.638,30.641A.99.99,0,0,1,8,29.709Zm-2-17.8,9,3.461v6.715L10.87,20.5,6.641,18.872A1,1,0,0,1,6,17.939Zm4.642,30.5A1.007,1.007,0,0,1,10,41.479V35.45l5,1.924v6.714ZM19,47V34H30V53.046l-11-4.4Zm26,1.646-11,4.4V34H45V48.646Zm8.359-6.235L49,44.088V37.374l1.01-.389L54,35.451v6.028A1,1,0,0,1,53.359,42.411Z"/></svg>